#!OML:ASF X:\für Bonn\!DataBase\2005_08_11_Bastian_Final\c3d\Bastian.ASF
:FULLY-SPECIFIED
:DEGREES
395
root 1.46897 1.50738 24.9574 -800.323 -168.461 -718.584
lowerback 53.5284 3.73449 3.38959
upperback 26.0436 -9.5711 -0.460701
thorax 8.63046 -11.8626 -0.271935
lowerneck -12.1549 -1.8766 -2.66524
upperneck 6.65718 -2.00701 -0.464595
head 4.44005 -1.08094 0.169415
rclavicle -3.69864e-014 -4.67144e-015
rhumerus -72.5902 43.6499 -92.4409
rradius 89.9139
rwrist -20.3006
rhand -9.4484 -10.4793
rfingers 7.12502
rthumb 16.5148 -39.7965
lclavicle -3.69864e-014 -4.67144e-015
lhumerus -27.6732 -55.4381 64.5659
lradius 51.6182
lwrist 23.8415
lhand -22.6756 -13.8742
lfingers 7.12502
lthumb 3.75634 16.0724
rfemur -53.157 -11.1276 15.6724
rtibia 88.802
rfoot 17.0332 -2.65639
rtoes 4.20621
lfemur -42.4261 4.95226 -28.4404
ltibia 60.4716
lfoot 8.60092 -0.691486
ltoes -30.208
396
root 1.46403 1.50916 24.9465 -800.339 -168.63 -718.497
lowerback 53.0164 3.78913 3.17751
upperback 26.0631 -9.47588 -0.449324
thorax 8.69862 -11.7882 -0.215218
lowerneck -11.9485 -1.83687 -2.70547
upperneck 6.80481 -1.94986 -0.503642
head 4.45111 -1.05766 0.168737
rclavicle 2.70596e-014 1.20265e-014
rhumerus -71.6854 43.8448 -91.9749
rradius 89.4095
rwrist -16.6911
rhand -10.8856 -8.90449
rfingers 7.12502
rthumb 15.1307 -38.3314
lclavicle 2.70596e-014 1.20265e-014
lhumerus -28.3659 -54.3479 65.3633
lradius 51.605
lwrist 23.6093
lhand -22.9705 -13.9978
lfingers 7.12502
lthumb 3.47159 15.9537
rfemur -53.1795 -11.1454 15.8288
rtibia 88.9222
rfoot 16.9934 -2.8332
rtoes 4.33283
lfemur -41.2922 4.84776 -28.4305
ltibia 58.5012
lfoot 8.54179 -0.399983
ltoes -30.5784
397
root 1.45782 1.51053 24.9357 -800.365 -168.825 -718.417
lowerback 52.5231 3.82069 3.03228
upperback 26.088 -9.38106 -0.462319
thorax 8.76695 -11.7046 -0.213976
lowerneck -11.7549 -1.80293 -2.69238
upperneck 6.96103 -1.90809 -0.546518
head 4.46723 -1.04067 0.155761
rclavicle -3.25883e-014 -1.47101e-014
rhumerus -70.5817 43.879 -91.4633
rradius 88.7444
rwrist -13.054
rhand -12.3934 -7.5528
rfingers 7.12502
rthumb 13.6779 -37.0833
lclavicle -3.25883e-014 -1.47101e-014
lhumerus -28.9605 -53.3665 66.0587
lradius 51.56
lwrist 23.415
lhand -23.293 -14.1567
lfingers 7.12502
lthumb 3.16011 15.7997
rfemur -53.1888 -11.1677 16.0087
rtibia 89.0374
rfoot 16.9814 -2.95712
rtoes 4.16211
lfemur -40.1582 4.72917 -28.3856
ltibia 56.5654
lfoot 8.46479 -0.0896167
ltoes -30.7224
398
root 1.45224 1.51193 24.9231 -800.39 -168.992 -718.34
lowerback 52.0127 3.86145 2.85311
upperback 26.123 -9.29316 -0.471187
thorax 8.85493 -11.6312 -0.195041
lowerneck -11.56 -1.76483 -2.68999
upperneck 7.09658 -1.8563 -0.607491
head 4.47539 -1.01938 0.139436
rclavicle -5.23549e-014 -1.12313e-014
rhumerus -69.3023 43.8051 -90.8553
rradius 87.9847
rwrist -9.54125
rhand -13.9186 -6.39561
rfingers 7.12502
rthumb 12.2076 -36.0194
lclavicle -5.23549e-014 -1.12313e-014
lhumerus -29.5106 -52.3861 66.6911
lradius 51.4958
lwrist 23.138
lhand -23.6288 -14.3899
lfingers 7.12502
lthumb 2.83586 15.571
rfemur -53.2248 -11.2096 16.1645
rtibia 89.1698
rfoot 16.9557 -3.12226
rtoes 4.04778
lfemur -39.0184 4.60042 -28.353
ltibia 54.6721
lfoot 8.35851 0.208419
ltoes -30.2051
399
root 1.44708 1.51373 24.9131 -800.422 -169.163 -718.263
lowerback 51.5207 3.91035 2.66881
upperback 26.1456 -9.19388 -0.464588
thorax 8.93194 -11.5542 -0.157066
lowerneck -11.4118 -1.73968 -2.69306
upperneck 7.292 -1.81764 -0.671172
head 4.51521 -1.00527 0.121408
rclavicle 3.86263e-014 2.92213e-014
rhumerus -67.9276 43.6406 -90.1843
rradius 87.1382
rwrist -6.22898
rhand -15.3508 -5.51878
rfingers 7.12502
rthumb 10.8263 -35.2197
lclavicle 3.86263e-014 2.92213e-014
lhumerus -30.027 -51.4765 67.3261
lradius 51.4188
lwrist 22.8692
lhand -24.0324 -14.5456
lfingers 7.12502
lthumb 2.44612 15.4201
rfemur -53.2258 -11.2449 16.3123
rtibia 89.2816
rfoot 16.9086 -3.29832
rtoes 3.87438
lfemur -37.8933 4.4791 -28.3226
ltibia 52.8319
lfoot 8.19499 0.40323
ltoes -30.1985
400
root 1.44128 1.51467 24.905 -800.457 -169.36 -718.192
lowerback 51.0449 3.93592 2.52848
upperback 26.1611 -9.10048 -0.479113
thorax 8.99537 -11.471 -0.156225
lowerneck -11.2183 -1.7057 -2.70479
upperneck 7.46032 -1.7721 -0.690205
head 4.53649 -0.985285 0.121145
rclavicle 7.27552e-014 -1.61016e-014
rhumerus -66.5038 43.339 -89.5452
rradius 86.2186
rwrist -3.28358
rhand -16.6774 -4.83897
rfingers 7.12502
rthumb 9.54662 -34.6027
lclavicle 7.27552e-014 -1.61016e-014
lhumerus -30.5422 -50.6585 67.9139
lradius 51.3354
lwrist 22.6765
lhand -24.4781 -14.8149
lfingers 7.12502
lthumb 2.01562 15.1553
rfemur -53.2166 -11.265 16.4864
rtibia 89.3683
rfoot 16.853 -3.55347
rtoes 3.62071
lfemur -36.8043 4.37132 -28.2617
ltibia 51.0569
lfoot 8.01521 0.543907
ltoes -30.0018
401
root 1.4355 1.51591 24.8994 -800.482 -169.532 -718.115
lowerback 50.5699 3.94909 2.36629
upperback 26.1634 -9.02242 -0.495995
thorax 9.04659 -11.3939 -0.13993
lowerneck -11.0043 -1.68006 -2.76104
upperneck 7.98518 -1.73005 -0.697041
head 4.20116 -0.969206 0.115112
rclavicle -3.02028e-014 5.17834e-014
rhumerus -65.0553 43.0081 -88.9117
rradius 85.2653
rwrist -0.852052
rhand -17.8487 -4.26704
rfingers 7.12502
rthumb 8.41634 -34.0793
lclavicle -3.02028e-014 5.17834e-014
lhumerus -31.0451 -49.8407 68.4998
lradius 51.2518
lwrist 22.5013
lhand -24.8801 -15.0354
lfingers 7.12502
lthumb 1.62738 14.9381
rfemur -53.2148 -11.3045 16.6349
rtibia 89.4406
rfoot 16.8491 -3.74379
rtoes 3.19572
lfemur -35.737 4.22746 -28.2181
ltibia 49.3321
lfoot 7.77964 0.658355
ltoes -29.8776
402
root 1.42978 1.51599 24.8927 -800.517 -169.698 -718.05
lowerback 50.1068 3.98462 2.18925
upperback 26.1698 -8.93008 -0.497151
thorax 9.10757 -11.3175 -0.105679
lowerneck -10.8327 -1.64683 -2.74806
upperneck 7.80476 -1.68056 -0.787208
head 4.58179 -0.947681 0.104059
rclavicle 2.67303e-014 3.8763e-015
rhumerus -63.5727 42.6068 -88.2858
rradius 84.2457
rwrist 1.07848
rhand -18.9228 -3.81328
rfingers 7.12502
rthumb 7.37964 -33.6646
lclavicle 2.67303e-014 3.8763e-015
lhumerus -31.4888 -49.0851 69.0367
lradius 51.1754
lwrist 22.3047
lhand -25.2807 -15.1972
lfingers 7.12502
lthumb 1.2405 14.7789
rfemur -53.2048 -11.3403 16.7673
rtibia 89.5014
rfoot 16.8283 -3.99758
rtoes 3.06568
lfemur -34.6935 4.13234 -28.1921
ltibia 47.6629
lfoot 7.58821 0.679528
ltoes -29.9036
403
root 1.42274 1.51624 24.8883 -800.564 -169.874 -718
lowerback 49.7249 3.99809 2.07114
upperback 26.1551 -8.84457 -0.516021
thorax 9.12983 -11.2372 -0.105422
lowerneck -10.6507 -1.62998 -2.79714
upperneck 8.3456 -1.65114 -0.775335
head 4.2531 -0.936745 0.103672
rclavicle 3.42282e-015 -2.80286e-014
rhumerus -62.1163 42.1266 -87.7384
rradius 83.1933
rwrist 2.38783
rhand -19.9347 -3.3617
rfingers 7.12502
rthumb 6.40284 -33.2449
lclavicle 3.42282e-015 -2.80286e-014
lhumerus -31.871 -48.355 69.5131
lradius 51.0865
lwrist 22.1173
lhand -25.6484 -15.4239
lfingers 7.12502
lthumb 0.885334 14.5541
rfemur -53.1681 -11.3737 16.9083
rtibia 89.5409
rfoot 16.8271 -4.18674
rtoes 2.69815
lfemur -33.636 4.01798 -28.1499
ltibia 46.0264
lfoot 7.44251 0.66765
ltoes -29.9455
404
root 1.41553 1.51492 24.884 -800.588 -170.061 -717.975
lowerback 49.3561 4.02191 1.91549
upperback 26.1189 -8.75898 -0.525259
thorax 9.12974 -11.1611 -0.0722713
lowerneck -10.4767 -1.59589 -2.80946
upperneck 8.52274 -1.59487 -0.850476
head 4.27807 -0.91352 0.0871122
rclavicle 5.69642e-015 3.60794e-014
rhumerus -60.7078 41.7215 -87.2702
rradius 82.1213
rwrist 3.18808
rhand -20.9533 -2.98609
rfingers 7.12502
rthumb 5.41948 -32.8968
lclavicle 5.69642e-015 3.60794e-014
lhumerus -32.2346 -47.6023 69.9933
lradius 50.9901
lwrist 21.9783
lhand -25.9578 -15.6602
lfingers 7.12502
lthumb 0.586536 14.3187
rfemur -53.1581 -11.3833 17.0578
rtibia 89.5645
rfoot 16.8373 -4.40437
rtoes 2.50279
lfemur -32.6248 3.93133 -28.1044
ltibia 44.4312
lfoot 7.35161 0.610337
ltoes -30.1395
405
root 1.40721 1.51267 24.8803 -800.621 -170.23 -717.98
lowerback 48.9887 4.0538 1.76133
upperback 26.0928 -8.6656 -0.558949
thorax 9.13888 -11.0796 -0.0698931
lowerneck -10.3118 -1.56798 -2.79894
upperneck 8.72518 -1.55128 -0.906243
head 4.31235 -0.894878 0.0717729
rclavicle -6.25551e-015 -5.05907e-014
rhumerus -59.2792 41.2376 -86.8945
rradius 81.0214
rwrist 3.57795
rhand -21.8611 -2.65229
rfingers 7.12502
rthumb 4.54292 -32.5836
lclavicle -6.25551e-015 -5.05907e-014
lhumerus -32.5701 -46.8754 70.4138
lradius 50.8821
lwrist 21.7357
lhand -26.2864 -15.8617
lfingers 7.12502
lthumb 0.26915 14.1178
rfemur -53.1482 -11.3744 17.1676
rtibia 89.5743
rfoot 16.8941 -4.58672
rtoes 2.28139
lfemur -31.6218 3.84225 -28.0748
ltibia 42.8749
lfoot 7.33734 0.546519
ltoes -30.2444
